<svg width="42" height="54" viewBox="0 0 42 54" fill="none" xmlns="http://www.w3.org/2000/svg">
<mask id="path-1-inside-1" fill="white">
<path d="M5.88862 44.2452C5.9175 44.2648 5.9473 44.2829 5.97791 44.2994C4.77744 46.8439 3.67123 49.4245 2.65927 52.0413C2.60455 52.1831 2.57721 52.3347 2.57882 52.4875C2.58043 52.6404 2.61095 52.7914 2.66865 52.9319C2.72634 53.0724 2.81008 53.1998 2.91508 53.3067C3.02007 53.4135 3.14427 53.4979 3.28058 53.5548C3.4169 53.6117 3.56265 53.6402 3.70953 53.6385C3.85641 53.6368 4.00153 53.6051 4.13661 53.545C4.27169 53.485 4.39408 53.3979 4.4968 53.2886C4.59952 53.1794 4.68056 53.0502 4.73528 52.9083C5.60834 50.6425 6.5583 48.4 7.58514 46.1806C7.63893 46.2221 7.69621 46.2584 7.75628 46.289C10.4895 47.6018 13.4667 48.2732 16.477 48.2555C21.1735 48.2426 25.7556 46.747 29.6176 43.9665C35.5778 39.6697 39.7893 32.253 40.9129 24.186C41.91 16.8157 40.5483 8.96542 36.9692 1.47903V1.43257C37.0314 1.16339 36.9991 0.879951 36.8781 0.633364C36.7572 0.386777 36.5555 0.193265 36.3095 0.0877141C36.0635 -0.0178364 35.7894 -0.0284808 35.5365 0.0577013C35.2837 0.143883 35.0687 0.321221 34.9304 0.557742C32.0657 5.46609 26.3139 7.92801 21.0606 9.74735L19.5724 10.2428C14.3415 12.0002 8.91706 13.8118 4.97339 17.9925C3.32022 19.7471 2.02772 21.8337 1.17465 24.1249C0.321587 26.4161 -0.0741894 28.864 0.0114406 31.3195C0.0970705 33.775 0.662313 36.1867 1.67273 38.4076C2.68314 40.6284 4.11757 42.612 5.88862 44.2374V44.2452ZM6.56574 19.626C10.115 15.8557 15.2865 14.1215 20.2793 12.4493L21.7675 11.9538C26.7082 10.2506 32.088 7.97446 35.4811 3.65449C38.3619 9.92606 39.4714 16.9199 38.6806 23.8221C37.6612 31.3007 33.7994 38.1213 28.3527 42.0542C22.4669 46.3045 14.7582 47.1406 8.70872 44.1832L8.5599 44.129C13.3497 34.222 19.4843 25.0833 26.7752 16.9938C26.8795 16.8837 26.9616 16.753 27.0167 16.6095C27.0719 16.466 27.0989 16.3125 27.0963 16.1579C27.0936 16.0034 27.0614 15.851 27.0014 15.7096C26.9414 15.5682 26.8549 15.4406 26.7469 15.3345C26.6389 15.2283 26.5117 15.1457 26.3726 15.0914C26.2335 15.037 26.0854 15.0121 25.937 15.0181C25.7885 15.0241 25.6427 15.0609 25.5081 15.1263C25.3735 15.1917 25.2528 15.2844 25.1531 15.3989C17.943 23.3947 11.8398 32.3974 7.01963 42.1471C5.54771 40.7122 4.3663 38.9857 3.54483 37.069C2.72336 35.1523 2.27841 33.0841 2.23612 30.986C2.19384 28.8878 2.55507 26.802 3.29859 24.8512C4.04211 22.9003 5.15292 21.1238 6.56574 19.626Z"/>
</mask>
<path d="M5.88862 44.2452C5.9175 44.2648 5.9473 44.2829 5.97791 44.2994C4.77744 46.8439 3.67123 49.4245 2.65927 52.0413C2.60455 52.1831 2.57721 52.3347 2.57882 52.4875C2.58043 52.6404 2.61095 52.7914 2.66865 52.9319C2.72634 53.0724 2.81008 53.1998 2.91508 53.3067C3.02007 53.4135 3.14427 53.4979 3.28058 53.5548C3.4169 53.6117 3.56265 53.6402 3.70953 53.6385C3.85641 53.6368 4.00153 53.6051 4.13661 53.545C4.27169 53.485 4.39408 53.3979 4.4968 53.2886C4.59952 53.1794 4.68056 53.0502 4.73528 52.9083C5.60834 50.6425 6.5583 48.4 7.58514 46.1806C7.63893 46.2221 7.69621 46.2584 7.75628 46.289C10.4895 47.6018 13.4667 48.2732 16.477 48.2555C21.1735 48.2426 25.7556 46.747 29.6176 43.9665C35.5778 39.6697 39.7893 32.253 40.9129 24.186C41.91 16.8157 40.5483 8.96542 36.9692 1.47903V1.43257C37.0314 1.16339 36.9991 0.879951 36.8781 0.633364C36.7572 0.386777 36.5555 0.193265 36.3095 0.0877141C36.0635 -0.0178364 35.7894 -0.0284808 35.5365 0.0577013C35.2837 0.143883 35.0687 0.321221 34.9304 0.557742C32.0657 5.46609 26.3139 7.92801 21.0606 9.74735L19.5724 10.2428C14.3415 12.0002 8.91706 13.8118 4.97339 17.9925C3.32022 19.7471 2.02772 21.8337 1.17465 24.1249C0.321587 26.4161 -0.0741894 28.864 0.0114406 31.3195C0.0970705 33.775 0.662313 36.1867 1.67273 38.4076C2.68314 40.6284 4.11757 42.612 5.88862 44.2374V44.2452ZM6.56574 19.626C10.115 15.8557 15.2865 14.1215 20.2793 12.4493L21.7675 11.9538C26.7082 10.2506 32.088 7.97446 35.4811 3.65449C38.3619 9.92606 39.4714 16.9199 38.6806 23.8221C37.6612 31.3007 33.7994 38.1213 28.3527 42.0542C22.4669 46.3045 14.7582 47.1406 8.70872 44.1832L8.5599 44.129C13.3497 34.222 19.4843 25.0833 26.7752 16.9938C26.8795 16.8837 26.9616 16.753 27.0167 16.6095C27.0719 16.466 27.0989 16.3125 27.0963 16.1579C27.0936 16.0034 27.0614 15.851 27.0014 15.7096C26.9414 15.5682 26.8549 15.4406 26.7469 15.3345C26.6389 15.2283 26.5117 15.1457 26.3726 15.0914C26.2335 15.037 26.0854 15.0121 25.937 15.0181C25.7885 15.0241 25.6427 15.0609 25.5081 15.1263C25.3735 15.1917 25.2528 15.2844 25.1531 15.3989C17.943 23.3947 11.8398 32.3974 7.01963 42.1471C5.54771 40.7122 4.3663 38.9857 3.54483 37.069C2.72336 35.1523 2.27841 33.0841 2.23612 30.986C2.19384 28.8878 2.55507 26.802 3.29859 24.8512C4.04211 22.9003 5.15292 21.1238 6.56574 19.626Z" fill="white"/>
<path d="M5.88862 44.2452H2.88862V45.8353L4.20462 46.728L5.88862 44.2452ZM5.97791 44.2994L8.69111 45.5794L9.90384 43.0089L7.40255 41.6592L5.97791 44.2994ZM2.65927 52.0413L-0.138787 50.9592L-0.13963 50.9614L2.65927 52.0413ZM4.73528 52.9083L7.53418 53.9882L7.53465 53.987L4.73528 52.9083ZM7.58514 46.1806L9.4158 43.8039L6.43982 41.5117L4.86245 44.9209L7.58514 46.1806ZM7.75628 46.289L6.39178 48.9608L6.42439 48.9774L6.45738 48.9933L7.75628 46.289ZM16.477 48.2555L16.4688 45.2555L16.4594 45.2555L16.477 48.2555ZM29.6176 43.9665L31.3705 46.4011L31.372 46.4L29.6176 43.9665ZM40.9129 24.186L43.8843 24.5998L43.8858 24.5881L40.9129 24.186ZM36.9692 1.47903H33.9692V2.15927L34.2626 2.77299L36.9692 1.47903ZM36.9692 1.43257L34.0462 0.757572L33.9692 1.09069V1.43257H36.9692ZM34.9304 0.557742L32.3406 -0.956472L32.3394 -0.954477L34.9304 0.557742ZM21.0606 9.74735L22.0083 12.5937L22.0254 12.5881L22.0424 12.5822L21.0606 9.74735ZM19.5724 10.2428L18.6247 7.39644L18.617 7.39904L19.5724 10.2428ZM4.97339 17.9925L2.79113 15.9339L2.78985 15.9352L4.97339 17.9925ZM5.88862 44.2374H8.88862V42.9188L7.91712 42.0272L5.88862 44.2374ZM20.2793 12.4493L19.3316 9.60288L19.3265 9.60458L20.2793 12.4493ZM21.7675 11.9538L22.7152 14.8002L22.7302 14.7952L22.7452 14.79L21.7675 11.9538ZM35.4811 3.65449L38.2072 2.40225L36.1565 -2.06226L33.1218 1.80144L35.4811 3.65449ZM38.6806 23.8221L41.6532 24.2273L41.6575 24.1955L41.6611 24.1636L38.6806 23.8221ZM28.3527 42.0542L26.5965 39.622L26.5963 39.6221L28.3527 42.0542ZM8.70872 44.1832L10.0263 41.4881L9.88404 41.4185L9.73524 41.3643L8.70872 44.1832ZM8.5599 44.129L5.859 42.8232L4.414 45.812L7.53337 46.948L8.5599 44.129ZM26.7752 16.9938L24.5973 14.9305L24.5717 14.9576L24.5467 14.9853L26.7752 16.9938ZM25.1531 15.3989L27.3811 17.408L27.3986 17.3885L27.4157 17.3688L25.1531 15.3989ZM7.01963 42.1471L4.92552 44.2953L7.8802 47.1756L9.70892 43.4767L7.01963 42.1471ZM4.20462 46.728C4.31695 46.8041 4.43329 46.8748 4.55327 46.9395L7.40255 41.6592C7.46131 41.6909 7.51806 41.7254 7.57261 41.7624L4.20462 46.728ZM3.26471 43.0193C2.03368 45.6286 0.899153 48.2752 -0.138787 50.9592L5.45732 53.1233C6.44331 50.5737 7.5212 48.0591 8.69111 45.5794L3.26471 43.0193ZM-0.13963 50.9614C-0.331846 51.4596 -0.4266 51.9885 -0.421011 52.5191L5.57866 52.456C5.58103 52.6809 5.54094 52.9066 5.45817 53.1211L-0.13963 50.9614ZM-0.421011 52.5191C-0.415423 53.0498 -0.309543 53.5768 -0.106615 54.0712L5.44391 51.7926C5.53145 52.0059 5.57629 52.231 5.57866 52.456L-0.421011 52.5191ZM-0.106615 54.0712C0.0963787 54.5657 0.394072 55.0213 0.775027 55.4091L5.05512 51.2042C5.22609 51.3783 5.35631 51.5792 5.44391 51.7926L-0.106615 54.0712ZM0.775027 55.4091C1.15624 55.7971 1.61368 56.1097 2.12437 56.323L4.4368 50.7865C4.67486 50.886 4.88391 51.03 5.05512 51.2042L0.775027 55.4091ZM2.12437 56.323C2.63535 56.5365 3.18601 56.6446 3.74373 56.6383L3.67533 50.6387C3.93929 50.6357 4.19844 50.687 4.4368 50.7865L2.12437 56.323ZM3.74373 56.6383C4.30141 56.6319 4.84923 56.5112 5.35489 56.2865L2.91833 50.8035C3.15383 50.6989 3.4114 50.6417 3.67533 50.6387L3.74373 56.6383ZM5.35489 56.2865C5.86023 56.062 6.31017 55.7395 6.68237 55.3437L2.31123 51.2336C2.478 51.0562 2.68315 50.908 2.91833 50.8035L5.35489 56.2865ZM6.68237 55.3437C7.05435 54.9481 7.34191 54.4866 7.53418 53.9882L1.93638 51.8284C2.01921 51.6138 2.14469 51.4107 2.31123 51.2336L6.68237 55.3437ZM7.53465 53.987C8.38397 51.7828 9.30833 49.6006 10.3078 47.4404L4.86245 44.9209C3.80827 47.1993 2.83271 49.5023 1.93591 51.8297L7.53465 53.987ZM5.75449 48.5573C5.95334 48.7105 6.16655 48.8457 6.39178 48.9608L9.12078 43.6173C9.22586 43.671 9.32451 43.7336 9.4158 43.8039L5.75449 48.5573ZM6.45738 48.9933C9.59818 50.5019 13.0253 51.2758 16.4947 51.2554L16.4594 45.2555C13.9081 45.2705 11.3807 44.7018 9.05518 43.5848L6.45738 48.9933ZM16.4852 51.2555C21.8169 51.2408 27.0075 49.5424 31.3705 46.4011L27.8648 41.5318C24.5038 43.9516 20.5301 45.2443 16.4688 45.2555L16.4852 51.2555ZM31.372 46.4C38.0791 41.5648 42.6625 33.3713 43.8842 24.5998L37.9416 23.7721C36.9161 31.1347 33.0765 37.7746 27.8633 41.5329L31.372 46.4ZM43.8858 24.5881C44.9701 16.5736 43.4771 8.13631 39.6758 0.185066L34.2626 2.77299C37.6195 9.79454 38.8499 17.0578 37.94 23.7838L43.8858 24.5881ZM39.9692 1.47903V1.43257H33.9692V1.47903H39.9692ZM39.8923 2.10758C40.1087 1.1707 39.9982 0.181937 39.5715 -0.687864L34.1847 1.95459C34 1.57796 33.9541 1.15607 34.0462 0.757572L39.8923 2.10758ZM39.5715 -0.687864C39.1438 -1.55976 38.4159 -2.27298 37.4925 -2.6692L35.1266 2.84463C34.6951 2.65951 34.3705 2.33332 34.1847 1.95459L39.5715 -0.687864ZM37.4925 -2.6692C36.566 -3.06676 35.5256 -3.10803 34.5687 -2.7819L36.5043 2.89731C36.0532 3.05107 35.5611 3.03108 35.1266 2.84463L37.4925 -2.6692ZM34.5687 -2.7819C33.6146 -2.45672 32.8326 -1.79788 32.3406 -0.956471L37.5202 2.07195C37.3049 2.44032 36.9527 2.74449 36.5043 2.89731L34.5687 -2.7819ZM32.3394 -0.954477C30.0946 2.89173 25.3912 5.07273 20.0788 6.91255L22.0424 12.5822C27.2365 10.7833 34.0368 8.04045 37.5214 2.06996L32.3394 -0.954477ZM20.1129 6.90097L18.6247 7.39645L20.5201 13.0892L22.0083 12.5937L20.1129 6.90097ZM18.617 7.39904C13.5213 9.11101 7.33596 11.116 2.79113 15.9339L7.15565 20.051C10.4982 16.5077 15.1617 14.8895 20.5278 13.0866L18.617 7.39904ZM2.78985 15.9352C0.858056 17.9856 -0.646011 20.417 -1.6368 23.0781L3.98611 25.1716C4.70145 23.2503 5.78238 21.5086 7.15693 20.0497L2.78985 15.9352ZM-1.6368 23.0781C-2.62753 25.7391 -3.08598 28.5783 -2.98674 31.4241L3.00962 31.215C2.9376 29.1498 3.2707 27.0931 3.98611 25.1716L-1.6368 23.0781ZM-2.98674 31.4241C-2.8875 34.2699 -2.23243 37.0684 -1.05794 39.6499L4.4034 37.1652C3.55705 35.305 3.08164 33.2802 3.00962 31.215L-2.98674 31.4241ZM-1.05794 39.6499C0.116641 42.2316 1.7879 44.5459 3.86012 46.4477L7.91712 42.0272C6.44724 40.6782 5.24965 39.0252 4.4034 37.1652L-1.05794 39.6499ZM2.88862 44.2374V44.2452H8.88862V44.2374H2.88862ZM8.75011 21.6823C11.6907 18.5587 16.079 17.0199 21.2321 15.294L19.3265 9.60458C14.4939 11.2232 8.53943 13.1527 4.38137 17.5697L8.75011 21.6823ZM21.227 15.2957L22.7152 14.8002L20.8198 9.10741L19.3316 9.60289L21.227 15.2957ZM22.7452 14.79C27.7034 13.0808 33.8567 10.5794 37.8403 5.50755L33.1218 1.80144C30.3193 5.36953 25.7131 7.42037 20.7898 9.11758L22.7452 14.79ZM32.7549 4.90673C35.4053 10.6768 36.429 17.1192 35.7001 23.4806L41.6611 24.1636C42.5139 16.7207 41.3184 9.17533 38.2072 2.40225L32.7549 4.90673ZM35.7081 23.4169C34.7845 30.1933 31.2915 36.2319 26.5965 39.622L30.1089 44.4864C36.3074 40.0108 40.538 32.4082 41.6532 24.2273L35.7081 23.4169ZM26.5963 39.6221C21.5211 43.2871 14.9881 43.9137 10.0263 41.4881L7.39112 46.8784C14.5282 50.3675 23.4128 49.3219 30.109 44.4864L26.5963 39.6221ZM9.73524 41.3643L9.58643 41.3101L7.53337 46.948L7.68219 47.0021L9.73524 41.3643ZM11.2608 45.4349C15.9284 35.7805 21.9047 26.8788 29.0037 19.0022L24.5467 14.9853C17.0639 23.2878 10.771 32.6635 5.859 42.8232L11.2608 45.4349ZM28.9531 19.057C29.3314 18.6576 29.6232 18.1903 29.8172 17.6853L24.2162 15.5338C24.3 15.3158 24.4276 15.1097 24.5973 14.9305L28.9531 19.057ZM29.8172 17.6853C30.0112 17.1804 30.105 16.6441 30.0958 16.1067L24.0967 16.2091C24.0928 15.9808 24.1326 15.7516 24.2162 15.5338L29.8172 17.6853ZM30.0958 16.1067C30.0867 15.5693 29.9746 15.0362 29.7631 14.5378L24.2397 16.8813C24.1482 16.6657 24.1006 16.4375 24.0967 16.2091L30.0958 16.1067ZM29.7631 14.5378C29.5515 14.0392 29.2431 13.5816 28.8501 13.1953L24.6436 17.4737C24.4666 17.2997 24.3312 17.0971 24.2397 16.8813L29.7631 14.5378ZM28.8501 13.1953C28.4569 12.8086 27.9867 12.5011 27.4641 12.297L25.2811 17.8857C25.0366 17.7903 24.8209 17.648 24.6436 17.4737L28.8501 13.1953ZM27.4641 12.297C26.9412 12.0927 26.3803 11.9978 25.8158 12.0206L26.0582 18.0157C25.7905 18.0265 25.5259 17.9814 25.2811 17.8857L27.4641 12.297ZM25.8158 12.0206C25.2513 12.0434 24.7008 12.1832 24.1973 12.4278L26.819 17.8248C26.5847 17.9386 26.3257 18.0049 26.0582 18.0157L25.8158 12.0206ZM24.1973 12.4278C23.6941 12.6723 23.2511 13.0147 22.8904 13.4291L27.4157 17.3688C27.2545 17.554 27.0529 17.7111 26.819 17.8248L24.1973 12.4278ZM22.9251 13.3899C15.529 21.592 9.27115 30.8239 4.33035 40.8176L9.70892 43.4767C14.4084 33.971 20.3571 25.1974 27.3811 17.408L22.9251 13.3899ZM9.11374 39.9989C7.92848 38.8435 6.97062 37.4467 6.30225 35.8872L0.78741 38.2508C1.76198 40.5248 3.16694 42.581 4.92552 44.2953L9.11374 39.9989ZM6.30225 35.8872C5.63381 34.3276 5.27007 32.6403 5.23551 30.9255L-0.763269 31.0464C-0.713256 33.5279 -0.187084 35.9771 0.78741 38.2508L6.30225 35.8872ZM5.23551 30.9255C5.20095 29.2107 5.49638 27.5083 6.10189 25.9196L0.49529 23.7828C-0.386245 26.0957 -0.813282 28.5649 -0.763269 31.0464L5.23551 30.9255ZM6.10189 25.9196C6.70733 24.331 7.60898 22.8921 8.74807 21.6845L4.3834 17.5675C2.69686 19.3555 1.37689 21.4696 0.49529 23.7828L6.10189 25.9196Z" fill="white" mask="url(#path-1-inside-1)"/>
</svg>
